# xmcd CD database file
#
# Track frame offsets:
#	187
#	19597
#	38215
#
# Disc length: 765 seconds
#
# Revision: 0
# Processed by: cddbd v1.5.1PL0 Copyright (c) Steve Scherf et al.
# Submitted via: CDex 1.51
#
DISCID=1902fb03
DTITLE=infix - 傷だらけの天使になんてなりたいとは思わない
DYEAR=1994
DGENRE=Pop
TTITLE0=傷だらけの天使になんてなりたいとは思わない
TTITLE1=草原のユーフォリア
TTITLE2=傷だらけの天使になんてなりたいとは思わない<オリジナル・カラオケ>
EXTD=YEAR: 1994
EXTT0=
EXTT1=
EXTT2=
PLAYORDER=
